<svg xmlns="http://www.w3.org/2000/svg" viewBox="0 0 900 1200" width="900" height="1200" role="img"><defs><filter id="soft" x="-30%" y="-30%" width="160%" height="160%"><feGaussianBlur stdDeviation="70"/></filter><linearGradient id="bg" x1="0" y1="0" x2="0.3" y2="1"><stop offset="0" stop-color="#ffffff"/><stop offset="0.55" stop-color="#f5f3ef"/><stop offset="1" stop-color="#e9e5df"/></linearGradient><radialGradient id="vig" cx="0.5" cy="0.42" r="0.75"><stop offset="0.55" stop-color="#000000" stop-opacity="0"/><stop offset="1" stop-color="#000000" stop-opacity="0.07"/></radialGradient><linearGradient id="fp5" x1="0.1" y1="0" x2="0.9" y2="1"><stop offset="0" stop-color="#91505c"/><stop offset="0.45" stop-color="#7c2f3d"/><stop offset="1" stop-color="#662732"/></linearGradient><linearGradient id="rp5" x1="0" y1="0" x2="0" y2="1"><stop offset="0" stop-color="#702a37"/><stop offset="1" stop-color="#57212b"/></linearGradient><radialGradient id="shp5" cx="0.5" cy="0.5" r="0.5"><stop offset="0" stop-color="#0b1220" stop-opacity="0.20"/><stop offset="1" stop-color="#0b1220" stop-opacity="0"/></radialGradient><clipPath id="clipp5"><path d="M262 468 L638 468 L662 500 L636 930 Q450 962 264 930 L238 500 Z"/></clipPath></defs><rect width="900" height="1200" fill="url(#bg)"/><rect width="900" height="1200" fill="url(#vig)"/><g transform="translate(-153.0,-228.0) scale(1.34)"><ellipse cx="450" cy="962" rx="220" ry="32" fill="url(#shp5)"/><path d="M262 468 L638 468 L662 500 L636 930 Q450 962 264 930 L238 500 Z" fill="url(#fp5)" stroke="#441a22" stroke-width="4" stroke-linejoin="round"/><path d="M340 468 V386 Q340 300 450 300 Q560 300 560 386 V468" fill="none" stroke="#59222c" stroke-width="17" stroke-linecap="round"/><path d="M340 468 V386 Q340 300 450 300 Q560 300 560 386 V468" fill="none" stroke="#945460" stroke-width="5" stroke-linecap="round" opacity="0.45"/><rect x="312" y="606" width="276" height="182" rx="14" fill="#752c39" stroke="#441a22" stroke-width="3.5"/><line x1="312" y1="606" x2="588" y2="606" stroke="#3e181e" stroke-width="8"/><circle cx="588" cy="606" r="12" fill="#be979e" stroke="#441a22" stroke-width="2.5"/><path d="M290 480 L286 926 L250 918 L252 476 Z" fill="#441a22" opacity="0.11"/><g clip-path="url(#clipp5)"><ellipse cx="370" cy="430" rx="180" ry="420" fill="#ffffff" opacity="0.22" filter="url(#soft)"/><ellipse cx="640" cy="760" rx="180" ry="440" fill="#0b1220" opacity="0.13" filter="url(#soft)"/></g></g></svg>