<svg xmlns="http://www.w3.org/2000/svg" viewBox="0 0 1800 760" width="1800" height="760" role="img"><defs><filter id="soft" x="-30%" y="-30%" width="160%" height="160%"><feGaussianBlur stdDeviation="70"/></filter><linearGradient id="fbannernewseason" x1="0.1" y1="0" x2="0.9" y2="1"><stop offset="0" stop-color="#f1f5fc"/><stop offset="0.45" stop-color="#eef3fb"/><stop offset="1" stop-color="#c3c7ce"/></linearGradient><linearGradient id="rbannernewseason" x1="0" y1="0" x2="0" y2="1"><stop offset="0" stop-color="#d6dbe2"/><stop offset="1" stop-color="#a7aab0"/></linearGradient><radialGradient id="shbannernewseason" cx="0.5" cy="0.5" r="0.5"><stop offset="0" stop-color="#0b1220" stop-opacity="0.20"/><stop offset="1" stop-color="#0b1220" stop-opacity="0"/></radialGradient><linearGradient id="bgbannernewseason" x1="0" y1="0" x2="1" y2="1"><stop offset="0" stop-color="#071229"/><stop offset="0.55" stop-color="#123066"/><stop offset="1" stop-color="#1F6FEB"/></linearGradient><radialGradient id="glowbannernewseason" cx="0.5" cy="0.5" r="0.5"><stop offset="0" stop-color="#7FB3FF" stop-opacity="0.5"/><stop offset="1" stop-color="#7FB3FF" stop-opacity="0"/></radialGradient></defs><rect width="1800" height="760" fill="url(#bgbannernewseason)"/><ellipse cx="1296.0" cy="76.0" rx="540.0" ry="456.0" fill="url(#glowbannernewseason)"/><circle cx="252.00000000000003" cy="699.2" r="258.40000000000003" fill="#ffffff" opacity="0.05"/><g transform="translate(660,0.0) scale(0.62)" opacity="0.95"><path d="M358 256 Q450 314 542 256 L570 286 L584 508 Q664 774 712 1052 Q450 1114 188 1052 Q236 774 316 508 L330 286 Z" fill="url(#fbannernewseason)" stroke="#83868a" stroke-width="4" stroke-linejoin="round"/><path d="M358 256 Q450 314 542 256 Q450 286 358 256 Z" fill="url(#rbannernewseason)" stroke="#83868a" stroke-width="3.5"/><path d="M316 508 Q450 552 584 508" fill="none" stroke="#83868a" stroke-width="4"/><path d="M320 526 Q450 570 580 526" fill="none" stroke="#f3f7fc" stroke-width="2.5" stroke-dasharray="12 10"/><g clip-path="url(#clipbannernewseason)"><path d="M400 530 Q386 800 366 1080 L330 1080 Q354 796 368 528 Z" fill="#83868a" opacity="0.09"/><path d="M470 530 Q456 800 436 1080 L400 1080 Q424 796 438 528 Z" fill="#83868a" opacity="0.09"/><path d="M540 530 Q526 800 506 1080 L470 1080 Q494 796 508 528 Z" fill="#83868a" opacity="0.09"/><path d="M610 530 Q596 800 576 1080 L540 1080 Q564 796 578 528 Z" fill="#83868a" opacity="0.09"/></g><path d="M188 1052 Q450 1114 712 1052" fill="none" stroke="#94979c" stroke-width="3" stroke-dasharray="18 13" stroke-linecap="round" opacity="0.75"/></g><g transform="translate(910,0.0) scale(0.62)" opacity="0.95"><path d="M368 250 L450 336 L532 250 L606 272 L706 358 L656 462 L576 420 L582 824 L318 824 L324 420 L244 462 L194 358 L294 272 Z" fill="url(#fbannernewseason)" stroke="#83868a" stroke-width="4" stroke-linejoin="round"/><path d="M368 250 L450 336 L404 372 L348 280 Z" fill="url(#rbannernewseason)" stroke="#83868a" stroke-width="4"/><path d="M532 250 L450 336 L496 372 L552 280 Z" fill="url(#rbannernewseason)" stroke="#83868a" stroke-width="4"/><line x1="450" y1="336" x2="450" y2="822" stroke="#6b6d71" stroke-width="9"/><line x1="442" y1="352" x2="458" y2="352" stroke="#f5f8fd" stroke-width="2.5" opacity="0.8"/><line x1="442" y1="378" x2="458" y2="378" stroke="#f5f8fd" stroke-width="2.5" opacity="0.8"/><line x1="442" y1="404" x2="458" y2="404" stroke="#f5f8fd" stroke-width="2.5" opacity="0.8"/><line x1="442" y1="430" x2="458" y2="430" stroke="#f5f8fd" stroke-width="2.5" opacity="0.8"/><line x1="442" y1="456" x2="458" y2="456" stroke="#f5f8fd" stroke-width="2.5" opacity="0.8"/><line x1="442" y1="482" x2="458" y2="482" stroke="#f5f8fd" stroke-width="2.5" opacity="0.8"/><line x1="442" y1="508" x2="458" y2="508" stroke="#f5f8fd" stroke-width="2.5" opacity="0.8"/><line x1="442" y1="534" x2="458" y2="534" stroke="#f5f8fd" stroke-width="2.5" opacity="0.8"/><line x1="442" y1="560" x2="458" y2="560" stroke="#f5f8fd" stroke-width="2.5" opacity="0.8"/><line x1="442" y1="586" x2="458" y2="586" stroke="#f5f8fd" stroke-width="2.5" opacity="0.8"/><line x1="442" y1="612" x2="458" y2="612" stroke="#f5f8fd" stroke-width="2.5" opacity="0.8"/><line x1="442" y1="638" x2="458" y2="638" stroke="#f5f8fd" stroke-width="2.5" opacity="0.8"/><line x1="442" y1="664" x2="458" y2="664" stroke="#f5f8fd" stroke-width="2.5" opacity="0.8"/><line x1="442" y1="690" x2="458" y2="690" stroke="#f5f8fd" stroke-width="2.5" opacity="0.8"/><line x1="442" y1="716" x2="458" y2="716" stroke="#f5f8fd" stroke-width="2.5" opacity="0.8"/><line x1="442" y1="742" x2="458" y2="742" stroke="#f5f8fd" stroke-width="2.5" opacity="0.8"/><line x1="442" y1="768" x2="458" y2="768" stroke="#f5f8fd" stroke-width="2.5" opacity="0.8"/><line x1="442" y1="794" x2="458" y2="794" stroke="#f5f8fd" stroke-width="2.5" opacity="0.8"/><rect x="437" y="348" width="26" height="40" rx="7" fill="#f6f9fd" stroke="#83868a" stroke-width="2.5"/><path d="M340 640 L412 640" stroke="#83868a" stroke-width="7" stroke-linecap="round"/><path d="M488 640 L560 640" stroke="#83868a" stroke-width="7" stroke-linecap="round"/><path d="M244 462 L194 358 L230 336 L278 438 Z" fill="url(#rbannernewseason)" stroke="#83868a" stroke-width="3.5"/><path d="M656 462 L706 358 L670 336 L622 438 Z" fill="url(#rbannernewseason)" stroke="#83868a" stroke-width="3.5"/><path d="M342 440 L336 820 L312 818 L318 438 Z" fill="#83868a" opacity="0.11"/></g><g transform="translate(1160,0.0) scale(0.62)" opacity="0.95"><path d="M262 468 L638 468 L662 500 L636 930 Q450 962 264 930 L238 500 Z" fill="url(#fbannernewseason)" stroke="#83868a" stroke-width="4" stroke-linejoin="round"/><path d="M340 468 V386 Q340 300 450 300 Q560 300 560 386 V468" fill="none" stroke="#abafb5" stroke-width="17" stroke-linecap="round"/><path d="M340 468 V386 Q340 300 450 300 Q560 300 560 386 V468" fill="none" stroke="#f1f5fc" stroke-width="5" stroke-linecap="round" opacity="0.45"/><rect x="312" y="606" width="276" height="182" rx="14" fill="#e0e4ec" stroke="#83868a" stroke-width="3.5"/><line x1="312" y1="606" x2="588" y2="606" stroke="#777a7e" stroke-width="8"/><circle cx="588" cy="606" r="12" fill="#f6f9fd" stroke="#83868a" stroke-width="2.5"/><path d="M290 480 L286 926 L250 918 L252 476 Z" fill="#83868a" opacity="0.11"/></g></svg>