<svg xmlns="http://www.w3.org/2000/svg" viewBox="0 0 800 800" width="800" height="800" role="img"><defs><filter id="soft" x="-30%" y="-30%" width="160%" height="160%"><feGaussianBlur stdDeviation="70"/></filter><linearGradient id="fcsho" x1="0.1" y1="0" x2="0.9" y2="1"><stop offset="0" stop-color="#f6f7fb"/><stop offset="0.45" stop-color="#f4f6fa"/><stop offset="1" stop-color="#c8cacd"/></linearGradient><linearGradient id="rcsho" x1="0" y1="0" x2="0" y2="1"><stop offset="0" stop-color="#dcdde1"/><stop offset="1" stop-color="#abacaf"/></linearGradient><radialGradient id="shcsho" cx="0.5" cy="0.5" r="0.5"><stop offset="0" stop-color="#0b1220" stop-opacity="0.20"/><stop offset="1" stop-color="#0b1220" stop-opacity="0"/></radialGradient><linearGradient id="tgcsho" x1="0" y1="0" x2="0.6" y2="1"><stop offset="0" stop-color="#786757"/><stop offset="1" stop-color="#463727"/></linearGradient></defs><rect width="800" height="800" fill="url(#tgcsho)"/><circle cx="624.0" cy="160.0" r="240.0" fill="#ffffff" opacity="0.07"/><circle cx="128.0" cy="720.0" r="208.0" fill="#ffffff" opacity="0.05"/><g transform="translate(36,-172) scale(0.78)"><path d="M164 862 Q166 632 322 596 Q424 574 476 656 L560 730 Q662 762 748 790 Q800 806 802 862 Z" fill="url(#fcsho)" stroke="#86878a" stroke-width="4" stroke-linejoin="round"/><path d="M164 862 Q166 660 268 610 Q300 690 296 862 Z" fill="#dcdde1" stroke="#86878a" stroke-width="3.5"/><path d="M636 754 Q712 776 752 792 Q800 808 802 862 L640 862 Q632 802 636 754 Z" fill="#dcdde1" stroke="#86878a" stroke-width="3.5"/><path d="M348 646 Q420 606 470 660 L560 730 L492 782 L372 700 Z" fill="#e8eaee" stroke="#86878a" stroke-width="3"/><path d="M362 676 L436 726" stroke="#fafafc" stroke-width="10" stroke-linecap="round"/><path d="M410 676 L484 726" stroke="#fafafc" stroke-width="10" stroke-linecap="round"/><path d="M458 676 L532 726" stroke="#fafafc" stroke-width="10" stroke-linecap="round"/><path d="M506 676 L580 726" stroke="#fafafc" stroke-width="10" stroke-linecap="round"/><circle cx="358" cy="672" r="6" fill="#6e6f70"/><circle cx="406" cy="675" r="6" fill="#6e6f70"/><circle cx="454" cy="678" r="6" fill="#6e6f70"/><circle cx="502" cy="681" r="6" fill="#6e6f70"/><circle cx="440" cy="730" r="6" fill="#6e6f70"/><circle cx="488" cy="733" r="6" fill="#6e6f70"/><circle cx="536" cy="736" r="6" fill="#6e6f70"/><circle cx="584" cy="739" r="6" fill="#6e6f70"/><path d="M152 856 Q450 900 812 848 L812 908 Q450 962 152 916 Z" fill="#f5f3ef" stroke="#929496" stroke-width="4"/><path d="M152 916 Q450 962 812 908 L812 940 Q450 994 152 948 Z" fill="#7a7b7d" stroke="#666769" stroke-width="3"/><line x1="210" y1="922" x2="210" y2="958" stroke="#5d5d5f" stroke-width="3" opacity="0.5"/><line x1="252" y1="924" x2="252" y2="960" stroke="#5d5d5f" stroke-width="3" opacity="0.5"/><line x1="294" y1="926" x2="294" y2="962" stroke="#5d5d5f" stroke-width="3" opacity="0.5"/><line x1="336" y1="928" x2="336" y2="964" stroke="#5d5d5f" stroke-width="3" opacity="0.5"/><line x1="378" y1="930" x2="378" y2="966" stroke="#5d5d5f" stroke-width="3" opacity="0.5"/><line x1="420" y1="932" x2="420" y2="968" stroke="#5d5d5f" stroke-width="3" opacity="0.5"/><line x1="462" y1="933" x2="462" y2="969" stroke="#5d5d5f" stroke-width="3" opacity="0.5"/><line x1="504" y1="935" x2="504" y2="971" stroke="#5d5d5f" stroke-width="3" opacity="0.5"/><line x1="546" y1="937" x2="546" y2="973" stroke="#5d5d5f" stroke-width="3" opacity="0.5"/><line x1="588" y1="939" x2="588" y2="975" stroke="#5d5d5f" stroke-width="3" opacity="0.5"/><line x1="630" y1="941" x2="630" y2="977" stroke="#5d5d5f" stroke-width="3" opacity="0.5"/><line x1="672" y1="943" x2="672" y2="979" stroke="#5d5d5f" stroke-width="3" opacity="0.5"/><line x1="714" y1="945" x2="714" y2="981" stroke="#5d5d5f" stroke-width="3" opacity="0.5"/><line x1="756" y1="947" x2="756" y2="983" stroke="#5d5d5f" stroke-width="3" opacity="0.5"/></g></svg>