<svg xmlns="http://www.w3.org/2000/svg" viewBox="0 0 900 1200" width="900" height="1200" role="img"><defs><filter id="soft" x="-30%" y="-30%" width="160%" height="160%"><feGaussianBlur stdDeviation="70"/></filter><linearGradient id="bg" x1="0" y1="0" x2="0.3" y2="1"><stop offset="0" stop-color="#ffffff"/><stop offset="0.55" stop-color="#f5f3ef"/><stop offset="1" stop-color="#e9e5df"/></linearGradient><radialGradient id="vig" cx="0.5" cy="0.42" r="0.75"><stop offset="0.55" stop-color="#000000" stop-opacity="0"/><stop offset="1" stop-color="#000000" stop-opacity="0.07"/></radialGradient><linearGradient id="fp36" x1="0.1" y1="0" x2="0.9" y2="1"><stop offset="0" stop-color="#ddcdb2"/><stop offset="0.45" stop-color="#d7c3a3"/><stop offset="1" stop-color="#b0a086"/></linearGradient><linearGradient id="rp36" x1="0" y1="0" x2="0" y2="1"><stop offset="0" stop-color="#c2b093"/><stop offset="1" stop-color="#968872"/></linearGradient><radialGradient id="shp36" cx="0.5" cy="0.5" r="0.5"><stop offset="0" stop-color="#0b1220" stop-opacity="0.20"/><stop offset="1" stop-color="#0b1220" stop-opacity="0"/></radialGradient><clipPath id="clipp36"><path d="M280 296 Q450 214 620 296 L642 400 Q450 322 258 400 Z M322 384 L578 384 L566 1030 L334 1030 Z"/></clipPath></defs><rect width="900" height="1200" fill="url(#bg)"/><rect width="900" height="1200" fill="url(#vig)"/><g transform="translate(-22.5,-78.0) scale(1.05)"><ellipse cx="450" cy="1094" rx="170" ry="28" fill="url(#shp36)"/><path d="M280 296 Q450 214 620 296 L642 400 Q450 322 258 400 Z" fill="url(#fp36)" stroke="#766b5a" stroke-width="4" stroke-linejoin="round"/><path d="M322 384 L578 384 L566 1030 L334 1030 Z" fill="url(#fp36)" stroke="#766b5a" stroke-width="4"/><path d="M448 384 L578 384 L566 1030 L452 1030 Z" fill="#bdac8f" stroke="#766b5a" stroke-width="3"/><line x1="450" y1="384" x2="452" y2="1030" stroke="#766b5a" stroke-width="3" opacity="0.6"/><g clip-path="url(#clipp36)"><path d="M322 500 L578 486 L578 518 L322 532 Z" fill="#766b5a" opacity="0.09"/><path d="M322 660 L578 646 L578 678 L322 692 Z" fill="#766b5a" opacity="0.09"/><path d="M322 820 L578 806 L578 838 L322 852 Z" fill="#766b5a" opacity="0.09"/><path d="M322 950 L578 936 L578 968 L322 982 Z" fill="#766b5a" opacity="0.09"/></g><line x1="342" y1="1028" x2="342" y2="1074" stroke="#968872" stroke-width="5" stroke-linecap="round"/><line x1="364" y1="1028" x2="364" y2="1074" stroke="#968872" stroke-width="5" stroke-linecap="round"/><line x1="386" y1="1028" x2="386" y2="1074" stroke="#968872" stroke-width="5" stroke-linecap="round"/><line x1="408" y1="1028" x2="408" y2="1074" stroke="#968872" stroke-width="5" stroke-linecap="round"/><line x1="430" y1="1028" x2="430" y2="1074" stroke="#968872" stroke-width="5" stroke-linecap="round"/><line x1="452" y1="1028" x2="452" y2="1074" stroke="#968872" stroke-width="5" stroke-linecap="round"/><line x1="474" y1="1028" x2="474" y2="1074" stroke="#968872" stroke-width="5" stroke-linecap="round"/><line x1="496" y1="1028" x2="496" y2="1074" stroke="#968872" stroke-width="5" stroke-linecap="round"/><line x1="518" y1="1028" x2="518" y2="1074" stroke="#968872" stroke-width="5" stroke-linecap="round"/><line x1="540" y1="1028" x2="540" y2="1074" stroke="#968872" stroke-width="5" stroke-linecap="round"/><line x1="562" y1="1028" x2="562" y2="1074" stroke="#968872" stroke-width="5" stroke-linecap="round"/><g clip-path="url(#clipp36)"><ellipse cx="370" cy="430" rx="180" ry="420" fill="#ffffff" opacity="0.22" filter="url(#soft)"/><ellipse cx="640" cy="760" rx="180" ry="440" fill="#0b1220" opacity="0.13" filter="url(#soft)"/></g></g></svg>